<?xml version="1.0" encoding="utf-8"?>
<!-- Generator: Adobe Illustrator 21.0.2, SVG Export Plug-In . SVG Version: 6.00 Build 0)  -->
<svg version="1.1" id="Layer_1" xmlns="http://www.w3.org/2000/svg" xmlns:xlink="http://www.w3.org/1999/xlink" x="0px" y="0px"
	 viewBox="0 0 1000 1000" style="enable-background:new 0 0 1000 1000;" xml:space="preserve">
<style type="text/css">
	.st0{fill:none;}
	.st1{fill:#FFFFFF;}
	.st2{fill:#34679A;}
</style>
<line class="st0" x1="453" y1="655.6" x2="459.9" y2="655.6"/>
<line class="st0" x1="-47" y1="271" x2="-49" y2="273"/>
<g>
	<path class="st1" d="M500,1000c276.2,0,500-223.9,500-500S776.2,0,500,0S0,223.9,0,500S223.8,1000,500,1000"/>
	<path class="st2" d="M653.4,250H346.7c-53.3,0-96.6,43.3-96.6,96.6v102v204.7c0,53.3,43.3,96.6,96.6,96.6h306.7
		c53.3,0,96.6-43.3,96.6-96.6V448.7v-102C750.1,293.3,706.7,250,653.4,250z M681.2,307.6h11.1v11v73.7l-84.5,0.3l-0.3-84.8
		L681.2,307.6z M428.7,448.7c16-22.2,42-36.7,71.4-36.7s55.3,14.5,71.3,36.7c10.4,14.5,16.7,32.2,16.7,51.3c0,48.5-39.5,88-88,88
		s-88-39.5-88-88C412.1,480.8,418.3,463.1,428.7,448.7z M701.3,653.4c0,26.4-21.5,47.9-47.9,47.9H346.7c-26.4,0-47.9-21.5-47.9-47.9
		V448.7h74.6c-6.5,15.9-10.1,33.2-10.1,51.3c0,75.4,61.3,136.7,136.7,136.7S636.7,575.4,636.7,500c0-18.1-3.6-35.5-10.1-51.3h74.6
		L701.3,653.4L701.3,653.4z"/>
</g>
</svg>
