<?xml version="1.0" encoding="utf-8"?>
<!-- Generator: Adobe Illustrator 21.0.2, SVG Export Plug-In . SVG Version: 6.00 Build 0)  -->
<svg version="1.1" id="Layer_1" xmlns="http://www.w3.org/2000/svg" xmlns:xlink="http://www.w3.org/1999/xlink" x="0px" y="0px"
	 viewBox="0 0 240.5 172.5" style="enable-background:new 0 0 240.5 172.5;" xml:space="preserve">
<style type="text/css">
	.st0{fill:#3BC7D4;}
	.st1{fill:#F6F7EB;}
</style>
<path class="st0" d="M154.3,0.1L154.3,0.1L0,0v172.5h154.3c47.5,0,86.2-38.6,86.2-86.2S201.8,0.1,154.3,0.1z"/>
<path class="st1" d="M154.3,29.4c-31.4,0-56.9,25.4-56.9,56.9s25.4,56.9,56.9,56.9c31.4,0,56.9-25.4,56.9-56.9
	S185.7,29.4,154.3,29.4z M136.6,66c0-2.2,1.8-4.1,4.1-4.1s4.1,1.8,4.1,4.1v26.9c0,1.1,0.2,2.2,0.5,3.1c0.3,1,0.7,1.9,1.3,2.8
	c0.9,1.3,1.9,2.3,3.2,3.1v0.9c0,1.2-0.3,2.4-0.7,3.5c-0.5,1.3-1.3,2.4-2.4,3.2c-0.7-0.3-1.3-0.7-1.8-1.1c-3-2-5.3-4.9-6.8-8.2
	c-0.9-2.2-1.4-4.7-1.4-7.2C136.6,92.8,136.6,66,136.6,66z M156.2,113.1c-2,3-4.9,5.3-8.2,6.8c-2.2,0.9-4.7,1.4-7.2,1.4l0,0l0,0l0,0
	c-1.9,0-3.8-0.3-5.5-0.9c-1.8-0.5-3.4-1.3-4.9-2.4c-3-2-5.3-4.9-6.8-8.2c-0.9-2.2-1.4-4.7-1.4-7.2v-3c0-2.2,1.8-4.1,4.1-4.1
	c2.2,0,4.1,1.8,4.1,4.1v3c0,1.1,0.2,2.2,0.5,3.1c0.3,1,0.7,1.9,1.3,2.8c1.1,1.7,2.8,3,4.6,3.8c1.3,0.5,2.6,0.9,4.1,0.9l0,0
	c1.1,0,2.2-0.2,3.1-0.5c1-0.3,1.9-0.7,2.8-1.3c1.7-1.1,3-2.8,3.8-4.6c0.5-1.3,0.9-2.6,0.9-4.1v-37c0-2.2,1.8-4.1,4.1-4.1
	s4.1,1.8,4.1,4.1v37c0,1.9-0.3,3.8-0.9,5.5C158.1,110,157.3,111.6,156.2,113.1z M173.9,92.8c0,1.9-0.3,3.8-0.9,5.5
	c-0.5,1.8-1.3,3.4-2.4,4.9c-2,3-4.9,5.3-8.2,6.8c-1.1,0.5-2.2,0.8-3.4,1.1c0.3-0.8,0.7-1.6,0.9-2.4c0.6-1.9,0.9-4,0.9-6v-1.1
	c0.1,0,0.1-0.1,0.1-0.1c1.7-1.1,3-2.8,3.8-4.6c0.5-1.3,0.9-2.6,0.9-4.1V66c0-2.2,1.8-4.1,4.1-4.1s4.1,1.8,4.1,4.1V92.8z"/>
</svg>
