<svg width="160" height="29" viewBox="0 0 160 29" fill="none" xmlns="http://www.w3.org/2000/svg">
<path fill-rule="evenodd" clip-rule="evenodd" d="M51.1764 25.5337L44.7944 17.0013L43.1434 18.9824V25.5337H38.6664V4.21954H43.1434V13.7424L50.6074 4.21954H56.1364L47.7644 14.221L56.7044 25.5337H51.1764Z" fill="#202832"/>
<path fill-rule="evenodd" clip-rule="evenodd" d="M70.9361 8.75723L67.6511 17.9786H74.2211L70.9361 8.75723ZM76.7481 25.5335L75.4541 21.7566H66.4181L65.0911 25.5335H59.9741L68.1241 4.21942H73.7481L81.8671 25.5335H76.7481Z" fill="#202832"/>
<path fill-rule="evenodd" clip-rule="evenodd" d="M85.067 23.8391L87.025 20.3566C87.845 21.1549 88.92 21.8894 90.373 21.8894C92.362 21.8894 93.608 20.5478 93.608 18.4706L93.6 4.21872H98.133V18.5344C98.133 23.5832 95.046 25.9163 90.719 25.9163C88.604 25.9163 86.583 25.3406 85.067 23.8391" fill="#202832"/>
<path fill-rule="evenodd" clip-rule="evenodd" d="M114.135 8.75723L110.849 17.7094H117.42L114.135 8.75723ZM119.948 25.5335L118.653 22.0257H109.616L108.29 25.5335H103.172L111.322 4.21942H116.947L125.067 25.5335H119.948Z" fill="#202832"/>
<path fill-rule="evenodd" clip-rule="evenodd" d="M143.237 19.1429C143.237 17.8012 142.29 16.6306 140.52 16.6306H134.667V21.4861H140.52C142.226 21.4861 143.237 20.6767 143.237 19.1429V19.1429ZM142.827 10.4507C142.827 9.10804 141.879 8.26624 140.363 8.26624H134.667V12.8526H140.363C141.879 12.8526 142.827 11.7923 142.827 10.4507V10.4507ZM130.133 25.5333V4.21915H141.341C145.353 4.21915 147.407 6.80829 147.407 9.65138C147.407 12.3356 145.764 14.1255 143.774 14.5413C146.016 14.8924 147.817 17.0981 147.817 19.7823C147.817 22.9775 145.701 25.5333 141.689 25.5333H130.133Z" fill="#202832"/>
<path fill-rule="evenodd" clip-rule="evenodd" d="M155.523 25.5337H160V4.21954H155.523V25.5337Z" fill="#202832"/>
<path fill-rule="evenodd" clip-rule="evenodd" d="M0 28.9817V0.98172H27.9995L0 28.9817Z" fill="#0072EF"/>
<path fill-rule="evenodd" clip-rule="evenodd" d="M5.59985 28.9817L16.8004 17.7819L28 28.9817H5.59985Z" fill="#0072EF"/>
</svg>
