<?xml version="1.0" encoding="utf-8"?>
<!-- Generator: Adobe Illustrator 18.0.0, SVG Export Plug-In . SVG Version: 6.00 Build 0)  -->
<!DOCTYPE svg PUBLIC "-//W3C//DTD SVG 1.1//EN" "http://www.w3.org/Graphics/SVG/1.1/DTD/svg11.dtd">
<svg version="1.1" id="Layer_1" xmlns="http://www.w3.org/2000/svg" xmlns:xlink="http://www.w3.org/1999/xlink" x="0px" y="0px"
	 viewBox="0 0 1000 1000" enable-background="new 0 0 1000 1000" xml:space="preserve">
<g>
	<path fill="#F5F6F6" d="M500,999.9c276.1,0,500-223.9,500-500S776.1,0,500,0C223.9,0,0,223.9,0,500S223.9,999.9,500,999.9"/>
	<path fill-rule="evenodd" clip-rule="evenodd" fill="#191717" d="M500,251.7c-140.6,0-254.5,114-254.5,254.5
		c0,112.5,72.9,207.9,174.1,241.5c12.7,2.4,17.4-5.5,17.4-12.2c0-6.1-0.2-26.1-0.3-47.4c-70.8,15.4-85.8-30-85.8-30
		c-11.6-29.4-28.3-37.2-28.3-37.2c-23.1-15.8,1.7-15.5,1.7-15.5c25.6,1.8,39,26.2,39,26.2c22.7,38.9,59.5,27.7,74.1,21.2
		c2.3-16.4,8.9-27.7,16.2-34c-56.5-6.4-116-28.3-116-125.8c0-27.8,9.9-50.5,26.2-68.3c-2.6-6.4-11.4-32.3,2.5-67.4
		c0,0,21.4-6.8,70,26.1c20.3-5.6,42.1-8.5,63.7-8.6c21.6,0.1,43.4,2.9,63.8,8.6c48.6-32.9,69.9-26.1,69.9-26.1
		c13.9,35.1,5.1,61,2.5,67.4c16.3,17.8,26.2,40.5,26.2,68.3c0,97.8-59.5,119.3-116.2,125.6c9.1,7.9,17.3,23.4,17.3,47.1
		c0,34.1-0.3,61.5-0.3,69.9c0,6.8,4.6,14.7,17.5,12.2c101.1-33.7,173.9-129.1,173.9-241.5C754.5,365.7,640.6,251.7,500,251.7z"/>
</g>
</svg>
