<?xml version="1.0" encoding="utf-8"?>
<!-- Generator: Adobe Illustrator 18.0.0, SVG Export Plug-In . SVG Version: 6.00 Build 0)  -->
<!DOCTYPE svg PUBLIC "-//W3C//DTD SVG 1.1//EN" "http://www.w3.org/Graphics/SVG/1.1/DTD/svg11.dtd">
<svg version="1.1" id="Layer_1" xmlns="http://www.w3.org/2000/svg" xmlns:xlink="http://www.w3.org/1999/xlink" x="0px" y="0px"
	 viewBox="0 0 1000 1000" enable-background="new 0 0 1000 1000" xml:space="preserve">
<g>
	<path fill="#C12026" d="M500,1000c276.1,0,500-223.9,500-500S776.2,0,500,0C223.9,0,0,223.9,0,500S223.9,1000,500,1000"/>
	<path fill="#FFFFFF" d="M417.3,723.9c-59.5,0-102.4-37.6-102.4-82.8c0-44.3,53.3-81.2,112.7-80.5c13.9,0.1,26.8,2.4,38.5,6.2
		c32.2,22.5,55.4,35.1,61.9,60.7c1.2,5.2,1.9,10.5,1.9,16C530,688.7,500.9,723.9,417.3,723.9 M432.9,458.9
		c-39.9-1.2-77.8-44.6-84.7-97c-6.9-52.4,19.9-92.5,59.8-91.3c39.9,1.2,77.8,43.2,84.7,95.6C499.5,418.6,472.8,460.1,432.9,458.9
		 M515.6,536.5c-14-9.9-40.7-34-40.7-48.1c0-16.7,4.7-24.8,29.7-44.3c25.6-20,43.7-48.1,43.7-80.8c0-39-17.4-76.9-49.9-89.5h49.1
		l34.6-25H427.3c-69.4,0-134.7,52.6-134.7,113.5c0,62.2,47.3,112.5,118,112.5c4.9,0,9.7-0.1,14.3-0.4c-4.6,8.7-7.9,18.7-7.9,28.9
		c0,17.3,9.3,31.3,21.1,42.8c-8.9,0-17.5,0.3-26.8,0.3c-86,0-152.2,54.8-152.2,111.6c0,55.9,72.6,90.9,158.5,90.9
		c98,0,152.2-55.6,152.2-111.6C569.8,592.3,556.5,565.4,515.6,536.5 M740.9,463.5h-60.3v-60.3h-48.5v60.3h-60.3V512h60.3v60.3h48.5
		V512h60.3V463.5z"/>
</g>
</svg>
