<?xml version="1.0" encoding="utf-8"?>
<!-- Generator: Adobe Illustrator 21.0.2, SVG Export Plug-In . SVG Version: 6.00 Build 0)  -->
<svg version="1.1" id="Layer_1" xmlns="http://www.w3.org/2000/svg" xmlns:xlink="http://www.w3.org/1999/xlink" x="0px" y="0px"
	 viewBox="0 0 1000 1000" style="enable-background:new 0 0 1000 1000;" xml:space="preserve">
<style type="text/css">
	.st0{fill:none;}
	.st1{fill:#FFFFFF;}
	.st2{fill:none;stroke:#000000;stroke-width:45;stroke-miterlimit:10;}
</style>
<line class="st0" x1="-47" y1="271" x2="-49" y2="273"/>
<path class="st1" d="M502,1000c276.2,0,500-223.9,500-500S778.2,0,502,0S2,223.9,2,500S225.8,1000,502,1000"/>
<g>
	<line class="st0" x1="452.4" y1="655.6" x2="458.4" y2="655.6"/>
	<g>
		<path d="M719,354v292H285V354H719 M725.7,309H278.3c-21.1,0-38.3,17.1-38.3,38.3v305.4c0,21.1,17.1,38.3,38.3,38.3h447.4
			c21.1,0,38.3-17.1,38.3-38.3V347.3C764,326.1,746.9,309,725.7,309L725.7,309z"/>
	</g>
	<polyline class="st2" points="267,342 493.3,518 730.1,342 	"/>
</g>
</svg>
