<?xml version="1.0" encoding="utf-8"?>
<!-- Generator: Adobe Illustrator 21.0.2, SVG Export Plug-In . SVG Version: 6.00 Build 0)  -->
<svg version="1.1" id="Layer_1" xmlns="http://www.w3.org/2000/svg" xmlns:xlink="http://www.w3.org/1999/xlink" x="0px" y="0px"
	 viewBox="0 0 172.5 172.5" style="enable-background:new 0 0 172.5 172.5;" xml:space="preserve">
<style type="text/css">
	.st0{fill:#FFFFFF;}
</style>
<path class="st0" d="M86.3,0C38.6,0,0,38.6,0,86.3s38.6,86.3,86.3,86.3c47.6,0,86.3-38.6,86.3-86.3S133.9,0,86.3,0z M59.4,55.5
	c0-3.4,2.8-6.2,6.2-6.2c3.4,0,6.2,2.8,6.2,6.2v40.8c0,1.7,0.3,3.3,0.7,4.7c0.5,1.5,1.1,2.9,2,4.2c1.3,1.9,2.9,3.5,4.9,4.7v1.3
	c0,1.8-0.4,3.6-1.1,5.3c-0.8,1.9-2,3.6-3.6,4.9c-1-0.5-1.9-1.1-2.8-1.7c-4.5-3.1-8.1-7.4-10.3-12.5c-1.4-3.4-2.2-7.1-2.2-11V55.5z
	 M89.2,127c-3.1,4.5-7.4,8.1-12.5,10.3c-3.4,1.4-7.1,2.2-11,2.2h0h0h0c-2.9,0-5.8-0.4-8.4-1.3c-2.7-0.8-5.2-2-7.4-3.6
	c-4.5-3.1-8.1-7.4-10.3-12.5c-1.4-3.4-2.2-7.1-2.2-11v-4.5c0-3.4,2.8-6.2,6.2-6.2s6.2,2.8,6.2,6.2v4.5c0,1.7,0.3,3.3,0.7,4.7
	c0.5,1.5,1.1,2.9,2,4.2c1.7,2.6,4.2,4.6,7,5.8c1.9,0.8,4,1.3,6.2,1.3h0c1.7,0,3.3-0.3,4.7-0.7c1.5-0.5,2.9-1.1,4.2-2
	c2.6-1.7,4.6-4.2,5.8-7c0.8-1.9,1.3-4,1.3-6.2V55.1c0-3.4,2.8-6.2,6.2-6.2s6.2,2.8,6.2,6.2v56.1c0,2.9-0.4,5.8-1.3,8.4
	C92,122.3,90.8,124.7,89.2,127z M116,96.2c0,2.9-0.4,5.8-1.3,8.4c-0.8,2.7-2,5.2-3.6,7.4c-3.1,4.5-7.4,8.1-12.5,10.3
	c-1.6,0.7-3.3,1.2-5.1,1.6c0.5-1.2,1-2.4,1.4-3.7c0.9-2.9,1.4-6,1.4-9.1v-1.6c0.1,0,0.1-0.1,0.2-0.1c2.6-1.7,4.6-4.2,5.8-7
	c0.8-1.9,1.3-4,1.3-6.2V55.5c0-3.4,2.8-6.2,6.2-6.2c3.4,0,6.2,2.8,6.2,6.2V96.2z"/>
</svg>
