<?xml version="1.0" encoding="utf-8"?>
<!-- Generator: Adobe Illustrator 21.0.2, SVG Export Plug-In . SVG Version: 6.00 Build 0)  -->
<svg version="1.1" id="Layer_1" xmlns="http://www.w3.org/2000/svg" xmlns:xlink="http://www.w3.org/1999/xlink" x="0px" y="0px"
	 viewBox="0 0 1000 1000" style="enable-background:new 0 0 1000 1000;" xml:space="preserve">
<style type="text/css">
	.st0{fill:#FFFFFF;}
	.st1{fill:#28AAE2;}
</style>
<g>
	<path class="st0" d="M491.3,999.9c276.1,4.8,503.8-215.1,508.6-491.2C1004.7,232.6,784.8,4.9,508.7,0.1
		C232.7-4.7,4.9,215.2,0.1,491.3S215.2,995.1,491.3,999.9"/>
	<path class="st1" d="M752.7,373.4c-18.6,7.8-38.5,13-59.3,15.1c21.5-12.3,38.1-32.2,46.2-56c-20.1,11.4-42.2,19.6-65.7,23.8
		C655.5,336,629,323,599.4,322.5c-56.7-1-103.5,44.2-104.5,100.9c-0.1,8.1,0.6,15.9,2.2,23.4c-85.3-5.8-160.3-48-209.9-111
		c-9.1,15.1-14.5,32.6-14.8,51.4c-0.6,35.6,17,67.4,44.2,86.3c-16.8-0.8-32.6-5.8-46.3-13.6v1.3c-0.9,49.8,33.8,91.9,80.7,102.2
		c-8.7,2.2-17.7,3.3-27.1,3.1c-6.6-0.1-13-0.9-19.3-2.2c12.4,41,49.8,71.4,94.7,73c-35.6,27-80.3,42.6-128.4,41.8
		c-8.3-0.1-16.5-0.8-24.5-1.9c45,29.9,98.7,47.9,156.7,48.9c189,3.3,295.1-151.4,297.4-287.2c0.1-4.5,0.1-8.9,0-13.3
		C720.8,411.6,738.6,393.8,752.7,373.4"/>
</g>
</svg>
