<?xml version="1.0" encoding="utf-8"?>
<!-- Generator: Adobe Illustrator 20.1.0, SVG Export Plug-In . SVG Version: 6.00 Build 0)  -->
<svg version="1.1" id="Layer_1" xmlns="http://www.w3.org/2000/svg" xmlns:xlink="http://www.w3.org/1999/xlink" x="0px" y="0px"
	 viewBox="0 0 192.8 82" style="enable-background:new 0 0 192.8 82;" xml:space="preserve">
<style type="text/css">
	.st0{fill:#231F20;}
</style>
<path class="st0" d="M18.2,17.5c0.1,0,0.2,0,0.2,0c5.9,0,12-3.3,15.5-8.7h1.1l-1.6,8.7h5.1l-0.2,1.6h-5.1l-2.7,16.7
	c0,0.3,0,0.8,0,1.2c0,0.7,0.4,1.2,1,1.2c1.2,0,2.6-2,3.9-6.1l1.2,0.2c-1.9,6.5-5.1,9.7-10.1,9.7c-4.3,0-6.7-2-6.7-5.7
	c0-0.6,0.1-1.5,0.2-2.6l2.4-14.6h-4.5L18.2,17.5z"/>
<path class="st0" d="M70.4,32.2C68.5,38.7,65.2,42,61,42c-3.7,0-6.3-2.5-6.3-6.8c0-4.9,2.4-9.9,2.4-12.7c0-1-0.3-1.5-0.9-1.5
	c-2.5,0-4.8,6.8-6.9,20.4c-2.2-0.1-4.4-0.2-6.5-0.2c-1.6,0-3.2,0.1-4.7,0.2c0.7-2.8,1.2-5.7,1.7-8.5l4.4-23.2h-4.7L39.8,8h7.5
	c1.8,0,4.2-0.2,7.3-0.7h1l-3.4,16.5c2-4.5,5.2-6.9,8.8-6.9c4,0,6.4,2.5,6.4,6.1c0,6.2-2.6,11.4-2.6,13.9c0,0.6,0.4,0.9,0.9,0.9
	c1.1,0,2.3-1.9,3.6-5.8L70.4,32.2z"/>
<path class="st0" d="M79.9,16.8c4,0,6.4,2.5,6.4,6.1c0,6.2-2.6,11.4-2.6,13.9c0,0.6,0.4,0.9,0.9,0.9c1.1,0,2.2-1.9,3.5-5.8l1.1,0.1
	C87.5,38.7,84.2,42,80,42c-3.7,0-6.3-2.5-6.3-6.8c0-4.9,2.5-9.9,2.5-12.7c0-1-0.3-1.5-0.9-1.5c-1.4,0-2.6,1.9-3.9,5.9l-0.9-0.6
	C72.2,20.1,75.8,16.8,79.9,16.8z"/>
<path class="st0" d="M93.5,33.8c2.8,0,4.3,1.1,4.3,3c0,1.4-0.9,2.1-0.9,2.9c0,0.5,0.7,0.9,2.1,0.9c2.6,0,3.8-0.8,3.8-2.4
	c0-1.8-1.4-2.8-3.3-4.3c-4.1-3.2-7.2-5.2-7.2-9.2c0-4.9,4-7.9,12-7.9c5.5,0,8.6,1.8,8.6,4.5c0,1.9-1.3,3-3.8,3
	c-2.6,0-4.3-1.2-4.3-2.8c0-1.4,0.9-2.1,0.9-2.4c0-0.7-0.6-1.2-1.9-1.2c-2.3,0-3.4,0.9-3.4,2.3c0,1.4,1.2,2.5,3.4,4.1
	c4.4,3.1,7.5,5.4,7.5,9.2c0,5-4.4,8.3-12.1,8.3c-6,0-9.4-2.1-9.4-4.6C89.9,35.1,91.5,33.8,93.5,33.8z"/>
<path class="st0" d="M0,39.4l0.2-1.6h7.5c1.8,0,4.3-0.2,7.3-0.7h1l-2.3,12.2c1.8-1.9,3.9-2.8,6.5-2.8c6.1,0,9.9,4.2,9.9,10.5
	c0,8.1-6.6,14.8-17.6,14.8C5.2,71.9,1,67.9,1,61c0-1.1,0.1-2.4,0.3-3.8l3.4-17.8H0z M13.2,54c-1.2,6.5-2.1,10.9-2.1,13.3
	c0,2.2,0.5,3.3,2,3.3c1.6,0,2.4-1.3,3.2-4.1c1.4-4.9,2.1-10.8,2.1-13.5c0-2.1-0.9-3.3-2.4-3.3C14.4,49.6,13.7,51.1,13.2,54z"/>
<path class="st0" d="M62.4,55.2L59.5,71c-1.4,7.9-6.4,11-16.4,11c-7.1,0-10.5-1.4-10.5-4.9c0-2.6,1.7-4.2,5-4.2
	c3.1,0,4.9,1.4,4.9,3.7c0,1.9-1.2,2.4-1.2,3c0,0.5,0.6,1,1.7,1c3.4,0,4.7-2.3,5.6-7.5l2.1-11.3c-1.8,5.8-5.5,9-9.7,9
	c-3.9,0-6.4-2.4-6.4-5.9c0-5.9,2.6-11,2.6-13.3c0-0.6-0.3-0.9-0.8-0.9c-1.2,0-2.3,1.8-3.6,5.5L31.7,56c1.9-6.2,5.1-9.4,9.4-9.4
	c3.7,0,6.3,2.5,6.3,6.6c0,4.7-2.5,9.6-2.5,12.2c0,0.9,0.4,1.4,1,1.4c2.5,0,4.8-6.5,6.9-19.6c2.8,0.2,4.9,0.2,6.5,0.2
	c1.6,0,3.2-0.1,4.7-0.2C63.2,50.5,62.8,53.1,62.4,55.2z"/>
<path class="st0" d="M64.3,56.3c0.1,0,0.2,0,0.2,0c5.9,0,12.4-3.3,15.9-8.7h1.1L80,56.3h5.1l-0.2,1.6h-5.1l-3.1,16.7
	c0,0.3,0,0.8,0,1.2c0,0.7,0.4,1.2,1,1.2c1.2,0,2.6-2,3.9-6.1l1.2,0.2c-1.9,6.5-5.1,9.7-10.1,9.7c-4.3,0-6.7-2-6.7-5.7
	c0-0.6,0.1-1.5,0.2-2.6l2.8-14.6H64L64.3,56.3z"/>
<path class="st0" d="M116.4,70.9c-1.8,6.5-5.1,9.8-9.3,9.8c-3.7,0-6.3-2.5-6.3-6.8c0-4.9,2.4-9.9,2.4-12.7c0-1-0.3-1.5-0.9-1.5
	c-2.5,0-4.8,6.8-6.9,20.4c-2.2-0.1-4.4-0.2-6.5-0.2c-1.6,0-3.2,0.1-4.7,0.2c0.7-2.8,1.2-5.7,1.7-8.5l4.4-23.2h-4.7l0.3-1.6h7.5
	c1.8,0,4.2-0.2,7.3-0.7h1l-3.4,16.5c2-4.5,5.2-6.9,8.8-6.9c4,0,6.4,2.5,6.4,6.1c0,6.2-2.6,11.4-2.6,13.9c0,0.6,0.4,0.9,0.9,0.9
	c1.1,0,2.3-1.9,3.6-5.8L116.4,70.9z"/>
<path class="st0" d="M129,74.2c0,2.7,1.8,4.2,4.8,4.2s7.2-1.9,9.9-5.3l1.3,0.4c-3.9,4.8-9,7.1-15.5,7.1c-7.4,0-12.2-4.4-12.2-10.4
	c0-8.1,6.7-14.8,17.8-14.8c7.2,0,11.1,2.5,11.1,6.3c0,4.8-5.1,8.1-13.9,8.1c-0.6,0-1.5,0-2.7-0.1C129.2,71.7,129,73.1,129,74.2z
	 M130.4,68.7c1.7,0,2.7-0.7,3.5-2.2c1-1.9,1.9-5.5,1.9-7.8c0-1.3-0.5-2-1.6-2c-1.2,0-2.3,1.2-2.7,3.2l-1.7,8.7
	C130.1,68.6,130.3,68.7,130.4,68.7z"/>
<path class="st0" d="M146.9,65c1.5-6.3,4.7-9.5,9.2-9.5c3.7,0,4.9,2.3,4.9,7c0,0.8-0.1,1.6-0.2,2.4c1.9-6.3,4.9-9.4,9.2-9.4
	c3.6,0,4.8,2.3,4.8,7c0,0.8,0,1.6-0.1,2.4c1.7-6.1,5-9.4,8.9-9.4c3.7,0,6.2,2.4,6.2,6.1c0,6.2-2.5,11.5-2.5,13.9
	c0,0.6,0.3,0.9,0.7,0.9c1.2,0,2.2-1.9,3.5-5.8l1.1,0.1c-1.9,6.5-4.9,9.8-9,9.8c-3.5,0-6-2.5-6-6.8c0-5,2.3-9.9,2.3-12.7
	c0-0.9-0.3-1.5-0.8-1.5c-2.2,0-4.4,6.8-6.3,20.4c-2-0.1-4-0.2-6-0.2c-1.5,0-2.9,0.1-4.3,0.2c2.5-11.8,3.4-18.3,3.4-19.2
	c0-0.8-0.3-1.3-0.7-1.3c-1.7,0-4.3,6.8-6.2,20.5c-2-0.1-4.1-0.2-6.2-0.2c-1.5,0-3,0.1-4.4,0.2c2.5-12.1,3.4-18.8,3.4-19.6
	c0-0.4-0.4-0.9-0.8-0.9c-0.9,0-2,1.9-3.1,5.7L146.9,65z"/>
<path class="st0" d="M73.1,7c0.3,0,0.5-0.1,0.7-0.2l2.5,7.4l10,0.2l2.8-7.3c0.2,0.1,0.5,0.2,0.7,0.2c0.9,0,1.7-0.7,1.7-1.6
	c0-0.9-0.7-1.7-1.6-1.7c-0.9,0-1.7,0.7-1.7,1.6c0,0.6,0.3,1.1,0.7,1.4l-4.6,2.6l-2.6-6.4c0.8-0.1,1.5-0.8,1.5-1.6
	c0-0.9-0.7-1.7-1.6-1.7c-0.9,0-1.7,0.7-1.7,1.6c0,0.8,0.6,1.5,1.4,1.7l-2.9,6.3L74,6.8c0.5-0.3,0.8-0.8,0.8-1.4
	c0-0.9-0.7-1.7-1.6-1.7c-0.9,0-1.7,0.7-1.7,1.6C71.4,6.2,72.2,7,73.1,7z M89.9,5.3c0.3,0,0.5,0.2,0.5,0.5c0,0.3-0.2,0.5-0.5,0.5
	c-0.3,0-0.5-0.2-0.5-0.5C89.4,5.5,89.6,5.3,89.9,5.3z M81.1,1.6c0-0.3,0.2-0.5,0.5-0.5c0.3,0,0.5,0.2,0.5,0.5c0,0.3-0.2,0.5-0.5,0.5
	C81.3,2.1,81.1,1.9,81.1,1.6z M73.1,4.9c0.3,0,0.5,0.2,0.5,0.5c0,0.3-0.2,0.5-0.5,0.5c-0.3,0-0.5-0.2-0.5-0.5
	C72.7,5.1,72.9,4.9,73.1,4.9z"/>
</svg>
